<svg xmlns="http://www.w3.org/2000/svg" viewBox="0 0 900 600" width="900" height="600" role="img" aria-label="Embroidery &amp; Handicraft"><defs><linearGradient id="bg" x1="0" y1="0" x2="1" y2="1"><stop offset="0" stop-color="#40B368"/><stop offset="1" stop-color="#1E7A44"/></linearGradient><radialGradient id="sc" cx="0.5" cy="0.46" r="0.75"><stop offset="0.55" stop-color="#0E4526" stop-opacity="0"/><stop offset="1" stop-color="#0E4526" stop-opacity="0.40"/></radialGradient></defs><rect width="900" height="600" fill="url(#bg)"/><g fill="none" stroke="#FFFFFF" stroke-width="2" opacity="0.11"><circle cx="1017.0" cy="96.0" r="79.6"/><circle cx="985.6" cy="213.0" r="79.6"/><circle cx="900.0" cy="298.6" r="79.6"/><circle cx="783.0" cy="330.0" r="79.6"/><circle cx="666.0" cy="298.6" r="79.6"/><circle cx="580.4" cy="213.0" r="79.6"/><circle cx="549.0" cy="96.0" r="79.6"/><circle cx="580.4" cy="-21.0" r="79.6"/><circle cx="666.0" cy="-106.6" r="79.6"/><circle cx="783.0" cy="-138.0" r="79.6"/><circle cx="900.0" cy="-106.6" r="79.6"/><circle cx="985.6" cy="-21.0" r="79.6"/><circle cx="951.5" cy="96.0" r="57.3"/><circle cx="928.9" cy="180.2" r="57.3"/><circle cx="867.2" cy="241.9" r="57.3"/><circle cx="783.0" cy="264.5" r="57.3"/><circle cx="698.8" cy="241.9" r="57.3"/><circle cx="637.1" cy="180.2" r="57.3"/><circle cx="614.5" cy="96.0" r="57.3"/><circle cx="637.1" cy="11.8" r="57.3"/><circle cx="698.8" cy="-49.9" r="57.3"/><circle cx="783.0" cy="-72.5" r="57.3"/><circle cx="867.2" cy="-49.9" r="57.3"/><circle cx="928.9" cy="11.8" r="57.3"/><circle cx="886.0" cy="96.0" r="35.0"/><circle cx="872.2" cy="147.5" r="35.0"/><circle cx="834.5" cy="185.2" r="35.0"/><circle cx="783.0" cy="199.0" r="35.0"/><circle cx="731.5" cy="185.2" r="35.0"/><circle cx="693.8" cy="147.5" r="35.0"/><circle cx="680.0" cy="96.0" r="35.0"/><circle cx="693.8" cy="44.5" r="35.0"/><circle cx="731.5" cy="6.8" r="35.0"/><circle cx="783.0" cy="-7.0" r="35.0"/><circle cx="834.5" cy="6.8" r="35.0"/><circle cx="872.2" cy="44.5" r="35.0"/><circle cx="783.0" cy="96.0" r="37.4"/></g><g fill="none" stroke="#FFFFFF" stroke-width="2" opacity="0.09"><circle cx="198.0" cy="540.0" r="45.9"/><circle cx="172.2" cy="619.4" r="45.9"/><circle cx="104.7" cy="668.4" r="45.9"/><circle cx="21.3" cy="668.4" r="45.9"/><circle cx="-46.2" cy="619.4" r="45.9"/><circle cx="-72.0" cy="540.0" r="45.9"/><circle cx="-46.2" cy="460.6" r="45.9"/><circle cx="21.3" cy="411.6" r="45.9"/><circle cx="104.7" cy="411.6" r="45.9"/><circle cx="172.2" cy="460.6" r="45.9"/><circle cx="160.2" cy="540.0" r="33.0"/><circle cx="141.6" cy="597.1" r="33.0"/><circle cx="93.0" cy="632.4" r="33.0"/><circle cx="33.0" cy="632.4" r="33.0"/><circle cx="-15.6" cy="597.1" r="33.0"/><circle cx="-34.2" cy="540.0" r="33.0"/><circle cx="-15.6" cy="482.9" r="33.0"/><circle cx="33.0" cy="447.6" r="33.0"/><circle cx="93.0" cy="447.6" r="33.0"/><circle cx="141.6" cy="482.9" r="33.0"/><circle cx="122.4" cy="540.0" r="20.2"/><circle cx="111.1" cy="574.9" r="20.2"/><circle cx="81.4" cy="596.5" r="20.2"/><circle cx="44.6" cy="596.5" r="20.2"/><circle cx="14.9" cy="574.9" r="20.2"/><circle cx="3.6" cy="540.0" r="20.2"/><circle cx="14.9" cy="505.1" r="20.2"/><circle cx="44.6" cy="483.5" r="20.2"/><circle cx="81.4" cy="483.5" r="20.2"/><circle cx="111.1" cy="505.1" r="20.2"/><circle cx="63.00000000000001" cy="540.0" r="21.6"/></g><rect width="900" height="600" fill="url(#sc)"/><g fill="none" stroke="#FFFFFF" stroke-width="13.2" stroke-linecap="round" stroke-linejoin="round"><circle cx="390.0" cy="330.0" r="24.0"/><circle cx="510.0" cy="330.0" r="24.0"/><line x1="408.0" y1="312.0" x2="534.0" y2="192.0"/><line x1="492.0" y1="312.0" x2="366.0" y2="192.0"/></g></svg>